HIERARCHY
ROOT joint_Root
{
	OFFSET 0.0 0.0 0.0
	CHANNELS 6 Xposition Yposition Zposition Zrotation Xrotation Yrotation 
	JOINT Hips
	{
		OFFSET 4.5925 91.4895 -427.239
		CHANNELS 6 Xposition Yposition Zposition Zrotation Xrotation Yrotation 
		JOINT Spine
		{
			OFFSET 15.7357 0.0 0.0
			CHANNELS 6 Xposition Yposition Zposition Zrotation Xrotation Yrotation 
			JOINT Chest
			{
				OFFSET 8.98455 -0.406207 0.0
				CHANNELS 6 Xposition Yposition Zposition Zrotation Xrotation Yrotation 
				JOINT Neck
				{
					OFFSET 16.3773 0.0 0.0
					CHANNELS 6 Xposition Yposition Zposition Zrotation Xrotation Yrotation 
					JOINT Head
					{
						OFFSET 6.45672 0.0 0.0
						CHANNELS 6 Xposition Yposition Zposition Zrotation Xrotation Yrotation 
						End Site
						{
							OFFSET 0.0 0.0 0.0
						}
					}
				}
				JOINT Shoulder_L
				{
					OFFSET 12.9942 -0.242716 4.98039
					CHANNELS 6 Xposition Yposition Zposition Zrotation Xrotation Yrotation 
					JOINT UpperArm_L
					{
						OFFSET 5.34809 0.0 0.0
						CHANNELS 6 Xposition Yposition Zposition Zrotation Xrotation Yrotation 
						JOINT LowerArm_L
						{
							OFFSET 24.3286 1.87007e-05 0.0
							CHANNELS 6 Xposition Yposition Zposition Zrotation Xrotation Yrotation 
							JOINT Hand_L
							{
								OFFSET 22.2916 0.0 0.0
								CHANNELS 6 Xposition Yposition Zposition Zrotation Xrotation Yrotation 
								End Site
								{
									OFFSET 0.0 0.0 0.0
								}
							}
						}
					}
				}
				JOINT Shoulder_R
				{
					OFFSET 12.9945 -0.242716 -4.98039
					CHANNELS 6 Xposition Yposition Zposition Zrotation Xrotation Yrotation 
					JOINT UpperArm_R
					{
						OFFSET -5.34813 0.0 0.0
						CHANNELS 6 Xposition Yposition Zposition Zrotation Xrotation Yrotation 
						JOINT LowerArm_R
						{
							OFFSET -24.3289 0.000322201 0.0
							CHANNELS 6 Xposition Yposition Zposition Zrotation Xrotation Yrotation 
							JOINT Hand_R
							{
								OFFSET -22.2915 -0.000108084 0.0
								CHANNELS 6 Xposition Yposition Zposition Zrotation Xrotation Yrotation 
								End Site
								{
									OFFSET 0.0 0.0 0.0
								}
							}
						}
					}
				}
			}
		}
		JOINT UpperLeg_L
		{
			OFFSET -2.19248 -6.46944 0.0
			CHANNELS 6 Xposition Yposition Zposition Zrotation Xrotation Yrotation 
			JOINT LowerLeg_L
			{
				OFFSET 39.0811 0.0 -1.23785e-05
				CHANNELS 6 Xposition Yposition Zposition Zrotation Xrotation Yrotation 
				JOINT Foot_L
				{
					OFFSET 40.9854 0.0 -1.26872e-05
					CHANNELS 6 Xposition Yposition Zposition Zrotation Xrotation Yrotation 
					JOINT Toes_L
					{
						OFFSET 11.7543 0.0 0.0
						CHANNELS 6 Xposition Yposition Zposition Zrotation Xrotation Yrotation 
						End Site
						{
							OFFSET 0.0 0.0 0.0
						}
					}
				}
			}
		}
		JOINT UpperLeg_R
		{
			OFFSET -2.19251 6.46944 0.0
			CHANNELS 6 Xposition Yposition Zposition Zrotation Xrotation Yrotation 
			JOINT LowerLeg_R
			{
				OFFSET -39.0811 -0.00228153 -0.0401928
				CHANNELS 6 Xposition Yposition Zposition Zrotation Xrotation Yrotation 
				JOINT Foot_R
				{
					OFFSET -40.9854 0.0 0.0
					CHANNELS 6 Xposition Yposition Zposition Zrotation Xrotation Yrotation 
					JOINT Toes_R
					{
						OFFSET -11.7543 0.0 0.0
						CHANNELS 6 Xposition Yposition Zposition Zrotation Xrotation Yrotation 
						End Site
						{
							OFFSET 0.0 0.0 0.0
						}
					}
				}
			}
		}
	}
}
MOTION
Frames:	4
Frame Time:	0.0333333
0.000000 0.000000 0.000000 0.000000 0.000000 -0.000000 -3.894180 91.619400 -1.477730 88.535900 10.038100 3.010330 15.735700 0.000005 -0.000001 99.522000 86.256900 -101.744000 8.984550 -0.406207 -0.000000 -0.351960 1.395450 -4.437440 16.377300 -0.000001 -0.000001 4.100540 -6.033500 4.681230 6.456720 -0.000001 -0.000000 -0.095765 -2.850360 -6.380960 12.994200 -0.242716 4.980390 -91.835900 5.302530 -70.871100 5.348090 -0.000007 -0.000001 -63.763400 23.099900 -6.568970 24.328600 0.000019 0.000005 5.883640 20.787200 -16.191600 22.291600 -0.000001 0.000005 14.311200 5.135720 4.282640 12.994500 -0.242716 -4.980390 93.728800 -9.579680 -68.614000 -5.348130 -0.000001 -0.000004 -50.901600 -59.253800 -98.070500 -24.328900 0.000322 -0.000009 -6.061880 -5.532700 -47.757000 -22.291500 -0.000108 -0.000004 19.641700 5.534330 -7.987150 -2.192480 -6.469440 -0.000000 -173.448000 -4.498930 -8.883860 39.081100 -0.000007 -0.000012 -0.166113 0.325348 27.047700 40.985400 -0.000006 -0.000013 -1.285950 10.266900 -65.795600 11.754300 -0.000000 0.000003 -0.000109 -0.001105 -16.619900 -2.192510 6.469440 -0.000001 179.926000 28.598700 175.564000 -39.081100 -0.002282 -0.040193 -0.066921 0.149047 25.230400 -40.985400 0.000008 0.000006 5.378380 7.727580 -68.664800 -11.754300 -0.000006 -0.000006 -0.003075 -0.041443 -18.258500
0.000000 0.000000 0.000000 0.000000 0.000000 -0.000000 -3.593500 91.625600 -1.473920 88.636400 9.119860 3.043660 15.735700 0.000005 -0.000001 97.998100 86.245600 -100.122000 8.984550 -0.406207 -0.000000 -0.304484 1.194030 -4.242100 16.377300 -0.000001 -0.000001 4.114710 -5.931870 4.668370 6.456720 -0.000001 -0.000000 0.128406 -2.718400 -6.084960 12.994200 -0.242716 4.980390 -91.831500 5.302390 -70.913700 5.348090 -0.000007 -0.000001 -63.887400 24.334000 -6.837210 24.328600 0.000019 0.000005 5.993130 20.449900 -16.724200 22.291600 -0.000001 0.000005 14.146200 5.142910 4.112090 12.994500 -0.242716 -4.980390 93.401800 -8.867810 -68.913300 -5.348130 -0.000001 -0.000004 -48.160900 -57.684900 -93.742800 -24.328900 0.000322 -0.000009 -7.232700 -6.296260 -49.162400 -22.291500 -0.000108 -0.000004 20.200000 5.535660 -8.047100 -2.192480 -6.469440 -0.000000 -173.741000 -4.918580 -8.622870 39.081100 -0.000007 -0.000012 -0.166285 0.325623 27.052200 40.985400 -0.000006 -0.000013 -1.174030 9.718660 -65.941900 11.754300 -0.000000 0.000003 -0.000116 -0.001164 -16.622100 -2.192510 6.469440 -0.000001 179.561000 28.137100 175.556000 -39.081100 -0.002282 -0.040193 -0.070791 0.156479 25.340500 -40.985400 0.000008 0.000006 5.132850 8.245640 -68.595800 -11.754300 -0.000006 -0.000006 -0.003039 -0.041047 -18.242400
0.000000 0.000000 0.000000 0.000000 0.000000 -0.000000 -3.264050 91.626200 -1.459650 88.720700 8.099000 3.114480 15.735700 0.000005 -0.000001 96.503500 86.211600 -98.529800 8.984550 -0.406207 -0.000000 -0.217033 0.999070 -4.048400 16.377300 -0.000001 -0.000001 3.997840 -5.818650 4.571690 6.456720 -0.000001 -0.000000 0.437920 -2.665230 -5.679870 12.994200 -0.242716 4.980390 -91.828500 5.326440 -71.022500 5.348090 -0.000007 -0.000001 -63.974000 25.407100 -7.234880 24.328600 0.000019 0.000005 6.132990 20.288800 -17.217000 22.291600 -0.000001 0.000005 13.855400 5.145810 4.042900 12.994500 -0.242716 -4.980390 92.945100 -7.890940 -69.457700 -5.348130 -0.000001 -0.000004 -44.757300 -55.632600 -88.062000 -24.328900 0.000322 -0.000009 -7.405290 -5.978680 -51.288400 -22.291500 -0.000108 -0.000004 20.835200 5.535000 -8.016320 -2.192480 -6.469440 -0.000000 -174.013000 -5.538350 -8.319220 39.081100 -0.000007 -0.000012 -0.166876 0.326227 27.091500 40.985400 -0.000006 -0.000013 -1.011320 9.302020 -66.128000 11.754300 -0.000000 0.000003 -0.000125 -0.001248 -16.625200 -2.192510 6.469440 -0.000001 179.197000 27.584300 175.555000 -39.081100 -0.002282 -0.040193 -0.072573 0.159095 25.500100 -40.985400 0.000008 0.000006 5.077930 8.752360 -68.585000 -11.754300 -0.000006 -0.000006 -0.003061 -0.041292 -18.252400
0.000000 0.000000 0.000000 0.000000 0.000000 -0.000000 -2.913330 91.627900 -1.426050 88.805700 6.952120 3.208040 15.735700 0.000005 -0.000001 95.194500 86.183400 -97.122300 8.984550 -0.406207 -0.000000 -0.147304 0.823990 -3.852270 16.377300 -0.000001 -0.000001 3.974280 -5.679540 4.365180 6.456720 -0.000001 -0.000000 0.614727 -2.698480 -5.212990 12.994200 -0.242716 4.980390 -91.866400 5.445320 -71.047800 5.348090 -0.000007 -0.000001 -63.895200 26.450700 -7.786120 24.328600 0.000019 0.000005 6.206190 20.068100 -17.583900 22.291600 -0.000001 0.000005 13.668500 5.152480 3.883960 12.994500 -0.242716 -4.980390 92.418800 -6.724960 -70.165900 -5.348130 -0.000001 -0.000004 -41.381400 -52.658900 -81.445400 -24.328900 0.000322 -0.000009 -7.436190 -5.336670 -54.522800 -22.291500 -0.000108 -0.000004 21.590700 5.529050 -7.753580 -2.192480 -6.469440 -0.000000 -174.278000 -6.437020 -7.947020 39.081100 -0.000007 -0.000012 -0.163186 0.318731 27.112000 40.985400 -0.000006 -0.000013 -0.808913 8.982830 -66.330800 11.754300 -0.000000 0.000003 -0.000124 -0.001232 -16.624600 -2.192510 6.469440 -0.000001 178.788000 26.933900 175.592000 -39.081100 -0.002282 -0.040193 -0.079379 0.172483 25.613500 -40.985400 0.000008 0.000006 4.803090 9.356350 -68.501300 -11.754300 -0.000006 -0.000006 -0.002906 -0.039533 -18.180800
